<svg xmlns="http://www.w3.org/2000/svg" viewBox="0 0 800 600">
<defs><radialGradient id="bg" cx="60%" cy="40%" r="90%"><stop offset="0" stop-color="#1f2937"/><stop offset="1" stop-color="#020617"/></radialGradient><linearGradient id="cu" x1="0" y1="0" x2="1" y2="1"><stop offset="0" stop-color="#7c2d12"/><stop offset=".25" stop-color="#fb923c"/><stop offset=".5" stop-color="#fed7aa"/><stop offset=".75" stop-color="#c2410c"/><stop offset="1" stop-color="#7c2d12"/></linearGradient></defs>
<rect width="800" height="600" fill="url(#bg)"/>
<ellipse cx="410" cy="360" rx="250" ry="135" fill="#111827"/>
<g fill="none" stroke="url(#cu)" stroke-width="20" stroke-linecap="round">
<ellipse cx="410" cy="350" rx="240" ry="110"/><ellipse cx="410" cy="350" rx="215" ry="95"/><ellipse cx="410" cy="350" rx="190" ry="80"/><ellipse cx="410" cy="350" rx="165" ry="66"/><ellipse cx="410" cy="350" rx="140" ry="53"/>
<path d="M165 350c0 135 490 135 490 0" opacity=".55"/><path d="M190 315c40 120 420 150 440 15" opacity=".45"/>
</g>
<circle cx="410" cy="350" r="45" fill="#020617" stroke="#f59e0b" stroke-width="8"/>
<path d="M500 128l95 45" stroke="#67e8f9" stroke-width="10" stroke-linecap="round" opacity=".25"/>
<text x="52" y="74" fill="#5eead4" font-family="Arial" font-size="22" font-weight="800" letter-spacing="4">RAW MATERIAL</text>
<text x="52" y="112" fill="#fff" font-family="Arial" font-size="44" font-weight="900">Copper Wire</text>
<text x="52" y="150" fill="#cbd5e1" font-family="Arial" font-size="20">Clean • reusable • recoverable</text>
</svg>
