<svg xmlns="http://www.w3.org/2000/svg" viewBox="0 0 1200 900">
<defs><linearGradient id="bg" x1="0" y1="0" x2="1" y2="1"><stop stop-color="#020617"/><stop offset=".55" stop-color="#0f172a"/><stop offset="1" stop-color="#134e4a"/></linearGradient><linearGradient id="copper" x1="0" y1="0" x2="1" y2="1"><stop stop-color="#7c2d12"/><stop offset=".45" stop-color="#fdba74"/><stop offset=".75" stop-color="#c2410c"/><stop offset="1" stop-color="#7c2d12"/></linearGradient></defs>
<rect width="1200" height="900" fill="url(#bg)"/>
<circle cx="1030" cy="160" r="210" fill="#2dd4bf" opacity=".08"/><circle cx="140" cy="760" r="260" fill="#14b8a6" opacity=".08"/>
<!-- copper -->
<g fill="none" stroke="url(#copper)" stroke-linecap="round" stroke-width="19"><ellipse cx="820" cy="610" rx="255" ry="150"/><ellipse cx="820" cy="610" rx="225" ry="132"/><ellipse cx="820" cy="610" rx="195" ry="112"/><ellipse cx="820" cy="610" rx="165" ry="93"/></g>
<!-- cardboard -->
<g transform="translate(115 545) rotate(-5)"><rect width="295" height="200" rx="18" fill="#b77942"/><rect x="22" y="20" width="250" height="28" fill="#f3d3ae"/><g fill="#99602f" opacity=".7"><rect x="22" y="72" width="250" height="18"/><rect x="22" y="117" width="250" height="18"/><rect x="22" y="162" width="250" height="18"/></g></g>
<!-- pipes -->
<g transform="translate(540 105)"><g fill="#94a3b8"><rect width="420" height="92" rx="24"/><rect y="115" width="395" height="92" rx="24"/></g><g fill="#475569"><rect x="34" y="22" width="345" height="48" rx="24"/><rect x="34" y="137" width="320" height="48" rx="24"/></g></g>
<!-- circuit board -->
<g transform="translate(145 160) rotate(-7)"><rect width="320" height="240" rx="26" fill="#14532d" stroke="#34d399" stroke-width="8"/><g stroke="#a7f3d0" stroke-width="5"><path d="M24 85h92v65h115v-70h65"/><path d="M24 195h106v-55h112v55h55"/><path d="M250 24v72"/></g><g fill="#fbbf24"><circle cx="75" cy="85" r="11"/><circle cx="168" cy="150" r="13"/><circle cx="255" cy="88" r="11"/><circle cx="116" cy="194" r="10"/></g></g>
<!-- chairs -->
<g transform="translate(915 250) scale(.72)" fill="#111827" stroke="#0f172a" stroke-width="8"><rect x="0" y="0" width="170" height="130" rx="22"/><rect x="16" y="125" width="138" height="88" rx="15"/><path d="M42 212v123M128 212v123M10 335l-50 55M160 335l50 55M42 335h86" fill="none" stroke-linecap="round"/></g>
<!-- small material chips -->
<g fill="#5eead4" opacity=".8"><circle cx="1040" cy="735" r="8"/><circle cx="1072" cy="750" r="8"/><circle cx="1104" cy="735" r="8"/></g>
</svg>
